<svg width="24" height="33" viewBox="0 0 24 33" fill="none" xmlns="http://www.w3.org/2000/svg">
<path d="M5.39988 24.8179C5.39988 25.0685 5.22157 25.2368 5.01146 25.2368V25.2354C4.79582 25.2368 4.62234 25.0685 4.62234 24.8172C4.62234 24.5673 4.79582 24.3998 5.01146 24.3998C5.22226 24.4011 5.39988 24.568 5.39988 24.8179ZM5.55677 24.8179C5.55677 24.4738 5.29967 24.2731 5.01146 24.2731C4.72256 24.2731 4.46545 24.4738 4.46545 24.8179C4.46545 25.162 4.72256 25.3628 5.01146 25.3628C5.29967 25.3628 5.55677 25.162 5.55677 24.8179ZM4.92092 24.8643H4.98036L5.11582 25.1108H5.26442L5.11444 24.8546C5.19185 24.8484 5.25543 24.8103 5.25543 24.7009C5.25543 24.568 5.16628 24.5244 5.01561 24.5244H4.79582V25.1108H4.92092V24.8643ZM4.92092 24.7646V24.6241H5.0087C5.05638 24.6241 5.12066 24.6289 5.12066 24.6891C5.12066 24.7535 5.08749 24.7646 5.0315 24.7646H4.92092Z" fill="white"/>
<path d="M4.9009 6.13387V17.4296L6.05512 18.601H12.4641L13.4089 17.422V6.13387L12.4641 4.92925H6.05512L4.9009 6.13387ZM4.9009 0H13.4062L17.8475 4.92579V18.6017L13.4062 23.5337H4.9009L0.459595 18.6017V4.92925L4.9009 0Z" fill="white"/>
<path d="M19.5615 26.3653V11.1836L24 11.1794V27.5436L19.5587 32.4756H11.5159L7.07593 27.5436V11.1836H11.5159V26.3715L12.6701 27.5436H18.6167L19.5615 26.3653Z" fill="white"/>
</svg>
